<!-- icon666.com - MILLIONS vector ICONS FREE --><svg version="1.1" id="Capa_1" xmlns="http://www.w3.org/2000/svg" xmlns:xlink="http://www.w3.org/1999/xlink" x="0px" y="0px" viewBox="0 0 512 512" style="enable-background:new 0 0 512 512;" xml:space="preserve"><g><g><path d="M405.396,65.064v-7.507C405.396,25.819,379.577,0,347.84,0H126.989l-10.01,20.02H67.065v7.507 c0,20.698,16.838,37.537,37.537,37.537h59.558V246.24h-59.558c-20.698,0-37.537,16.838-37.537,37.537v7.507h67.065v120.117h30.029 V512h15.015V411.402h30.029V246.24h-30.029V65.064h85.083V246.24h-30.029v165.161h30.029V512h15.015V411.402h30.029V311.304 h38.538c31.737,0,57.556-25.819,57.556-57.556v-7.507H279.273V65.064H405.396z M194.19,261.255v135.132h-45.044V276.27H83.366 c3.098-8.739,11.448-15.015,21.236-15.015H194.19z M389.718,261.255c-3.556,19.889-20.982,35.034-41.878,35.034h-53.552v100.098 h-45.044V261.255H389.718z M104.602,50.049c-9.788,0-18.138-6.276-21.236-15.015h42.892l10.01-20.02H347.84 c20.895,0,38.322,15.145,41.878,35.034H104.602z"/></g></g><g><g><rect x="104.102" y="148.145" width="15.015" height="15.015"/></g></g><g><g><rect x="104.102" y="178.174" width="15.015" height="15.015"/></g></g><g><g><rect x="104.102" y="118.115" width="15.015" height="15.015"/></g></g><g><g><rect x="334.326" y="366.858" width="15.015" height="15.015"/></g></g><g><g><rect x="334.326" y="426.917" width="15.015" height="15.015"/></g></g><g><g><rect x="334.326" y="396.888" width="15.015" height="15.015"/></g></g><g><g><rect x="374.366" y="396.888" width="15.015" height="15.015"/></g></g><g><g><rect x="374.366" y="456.946" width="15.015" height="15.015"/></g></g><g><g><rect x="374.366" y="426.917" width="15.015" height="15.015"/></g></g><g><g><path d="M426.912,148.145c-3.37-25.741-23.802-46.173-49.543-49.543V80.579h-15.015v18.023 c-25.741,3.37-46.173,23.802-49.543,49.543h-18.023v15.015h18.023c3.37,25.741,23.802,46.173,49.543,49.543v18.023h15.015v-18.023 c25.741-3.37,46.173-23.802,49.543-49.543h18.023v-15.015H426.912z M369.861,198.194c-23.458,0-42.542-19.084-42.542-42.542 c0-23.458,19.084-42.542,42.542-42.542c23.458,0,42.542,19.084,42.542,42.542C412.403,179.11,393.319,198.194,369.861,198.194z"/></g></g><g><g><g><rect x="234.229" y="486.976" width="15.015" height="15.015"/><rect x="234.229" y="426.917" width="15.015" height="15.015"/><rect x="234.229" y="456.946" width="15.015" height="15.015"/></g></g></g><g><g><g><rect x="234.229" y="208.203" width="15.015" height="15.015"/><rect x="234.229" y="178.174" width="15.015" height="15.015"/><rect x="234.229" y="88.086" width="15.015" height="15.015"/><rect x="234.229" y="118.115" width="15.015" height="15.015"/><rect x="234.229" y="148.145" width="15.015" height="15.015"/></g></g></g><g><g><g><rect x="194.19" y="200.696" width="15.015" height="15.015"/><rect x="194.19" y="170.667" width="15.015" height="15.015"/><rect x="194.19" y="95.593" width="15.015" height="60.059"/></g></g></g><g><g><rect x="194.19" y="432.923" width="15.015" height="50.049"/></g></g><g><g><g><rect x="287.781" y="25.024" width="30.029" height="15.015"/><rect x="332.825" y="25.024" width="15.015" height="15.015"/></g></g></g><g><g><g><rect x="264.258" y="338.831" width="15.015" height="15.015"/><rect x="264.258" y="283.777" width="15.015" height="40.039"/></g></g></g><g><g><g><rect x="164.16" y="313.806" width="15.015" height="30.029"/><rect x="164.16" y="358.85" width="15.015" height="15.015"/></g></g></g><g><g><path d="M357.349,155.652h-15.015c0,15.179,12.348,27.527,27.527,27.527v-15.015C362.961,168.164,357.349,162.552,357.349,155.652 z"/></g></g><g><g><path d="M369.861,128.125v15.015c6.9,0,12.512,5.612,12.512,12.512h15.015C397.388,140.473,385.04,128.125,369.861,128.125z"/></g></g></svg>