<!-- icon666.com - MILLIONS vector ICONS FREE --><svg viewBox="0 -43 512 512" xmlns="http://www.w3.org/2000/svg"><path d="m351.539062 182.972656-19.914062-11.496094 17.878906-4.789062-3.882812-14.488281-32.363282 8.671875-24.027343-13.871094 24.027343-13.871094 32.363282 8.671875 3.882812-14.488281-17.878906-4.789062 19.914062-11.496094-7.496093-12.988282-19.914063 11.5 4.789063-17.878906-14.484375-3.882812-8.671875 32.363281-24.027344 13.871094v-27.742188l23.691406-23.691406-10.605469-10.605469-13.085937 13.089844v-22.996094h-14.996094v22.996094l-13.085937-13.089844-10.605469 10.605469 23.691406 23.691406v27.742188l-24.027343-13.871094-8.671876-32.363281-14.484374 3.882812 4.789062 17.878906-19.914062-11.5-7.5 12.988282 19.914062 11.496094-17.875 4.789062 3.882812 14.488281 32.359376-8.671875 24.027343 13.871094-24.027343 13.871094-32.359376-8.671875-3.882812 14.488281 17.875 4.789062-19.914062 11.496094 7.5 12.988282 19.914062-11.496094-4.789062 17.875 14.484374 3.882812 8.671876-32.363281 24.027343-13.871094v27.742188l-23.691406 23.691406 10.605469 10.605469 13.085937-13.089844v22.996094h14.996094v-22.996094l13.085937 13.089844 10.605469-10.605469-23.691406-23.691406v-27.742188l24.027344 13.871094 8.671875 32.363281 14.484375-3.882812-4.789063-17.875 19.914063 11.496094zm0 0"/><path d="m493.914062 284.832031-38.359374-14.171875-86.125 36.828125v-25.769531l-33.640626-33.640625h-178.5l-36.046874 22.5h-121.242188v119.527344h122.511719l146.976562 35.089843 242.511719-103.765624zm-454.710937 90.277344h-24.207031v-89.535156h24.207031zm228.945313 34.347656-143.875-34.347656h-70.074219v-89.535156h61.695312v37.300781h14.996094v-40.640625l30.695313-19.160156h167.992187l24.855469 24.855469v23.421874h-125.808594v14.996094h134.839844l92.496094-39.550781 27.15625 10.03125 8.421874 17.042969zm0 0"/><path d="m376.003906 274.566406 38.382813-16.414062 28.15625 10.402344 5.195312-14.070313-33.757812-12.46875-43.875 18.761719zm0 0"/><path d="m191.796875 229.085938-29.871094-17.242188v-129.683594l112.308594-64.84375 112.3125 64.84375v129.683594l-42.207031 24.367188 7.496094 12.984374 49.707031-28.695312v-147l-127.308594-73.5-127.304687 73.5v147l37.367187 21.574219zm0 0"/><path d="m352.34375 362.554688-5.898438-13.789063 66.398438-28.410156 5.898438 13.789062zm75.589844-32.34375-5.898438-13.789063 13.789063-5.898437 5.898437 13.789062zm22.980468-9.832032-5.898437-13.789062 13.785156-5.898438 5.898438 13.789063zm0 0"/><path d="m322.328125 288.066406h-60.824219v-14.996094h60.824219zm-70.820313 0h-14.996093v-14.996094h14.996093zm-24.992187 0h-14.996094v-14.996094h14.996094zm0 0"/><path d="m376.546875 200.820312h-14.996094v-57.652343h14.996094zm0-67.652343h-14.996094v-14.996094h14.996094zm0-24.992188h-14.996094v-14.996093h14.996094zm0 0"/></svg>