<!-- <svg enable-background="new 0 0 512 512" viewBox="0 0 512 512" xmlns="http://www.w3.org/2000/svg"><g id="_x34_91_x2C__Eco_x2C__Growth_x2C__Plant"><g><path d="m410.026 276.76-76.063 74.647c-5.259-11.854-16.645-20.37-30.071-21.565l-185.937-20.311c-3.013-.329-6.011.727-8.158 2.868l-76.405 76.411c-3.905 3.904-3.905 10.229 0 14.134l80.125 80.126c3.905 3.905 10.24 3.905 14.145 0l22.074-22.073 174.396 6.555c2.779.119 5.479-.957 7.44-2.919l133.099-133.098c15.081-15.081 15.081-39.625 0-54.716-15.359-15.359-39.873-14.841-54.645-.059zm40.501 40.631-130.01 130.009-170.466-6.405-41.991-41.985c-3.905-3.904-10.24-3.904-14.145 0-3.905 3.905-3.905 10.24 0 14.145l37.692 37.692-11.017 11.017-65.981-65.98 65.941-65.952c39.799 4.354 181.369 19.813 181.508 19.822 7.77.668 14.035 6.773 14.901 14.523 1.105 9.971-6.933 18.627-17.014 18.198l-102.518-4.462c-5.508-.239-10.185 4.044-10.424 9.563s4.039 10.18 9.557 10.419l102.518 4.463c15.947.707 30.391-9.085 35.79-23.917l89.229-87.576c7.302-7.302 19.125-7.302 26.427 0 7.294 7.28 7.294 19.143.003 26.426z"/><path d="m67.315 171.353c.08 4.592 3.277 8.537 7.754 9.572 20.231 4.662 21.327 9.025 24.235 20.694 1.579 6.32 3.541 14.189 8.591 23.204.025.05.055.095.08.14 7.217 12.421 19.12 21.854 32.667 25.888 27.273 9.264 55.846-3.098 68.556-26.646 13.323 8.233 26.203 20.121 34.739 37.244-.1 8.806.637 17.592 2.221 26.337.996 5.459 6.215 9.035 11.625 8.059 5.438-.986 9.044-6.186 8.059-11.624-1.475-8.139-2.103-16.267-1.923-24.385.01-.18.01-.368.01-.558.568-21.376 6.863-42.663 18.826-63.7 29.953 26.685 75.534 28.378 106.821 1.613 25.191-20.968 29.883-53.819 34.017-82.805 3.188-22.307 6.195-43.375 18.119-51.672 3.765-2.615 5.27-7.456 3.646-11.744s-5.957-6.917-10.499-6.399c-35.68 4.114-96.79-16.356-150.301 27.975-32.243 26.87-37.343 73.686-15.528 107.115-10.26 16.77-17.432 33.917-21.406 51.189-9.588-11.385-20.754-19.902-31.92-26.257 4.268-27.891-11.943-55.124-39.699-63.546-44.909-14.1-78.487 14.369-101.278 20.475-4.439 1.185-7.497 5.239-7.412 9.831zm230.023-83.423c33.239-27.542 70.493-25.47 103.354-23.627 4.841.269 9.572.528 14.185.692-16.177 33.623-6.524 90.604-38.141 116.856-.04.035-.079.07-.119.1-24.395 20.913-60.304 18.707-82.865-3.466 6.973-9.677 15.171-19.374 24.803-29.026l35.69 6.385c5.438.976 10.628-2.649 11.604-8.078.966-5.439-2.65-10.634-8.089-11.604l-20.648-3.696c13.626-11.415 23.807-17.795 24.145-18.004 4.692-2.903 6.156-9.06 3.258-13.761-2.898-4.702-9.064-6.161-13.767-3.263-.598.374-7.72 4.812-18.039 12.835l2.988-11.818c1.354-5.354-1.893-10.793-7.241-12.147-5.359-1.35-10.798 1.893-12.152 7.246l-10.091 39.958c-8.925 8.806-17.083 17.959-24.583 27.791-11.296-24.106-6.316-55.025 15.708-73.373zm-127.231 72.227c16.107 4.891 26.177 19.33 26.272 35.322-20.933-8.039-38.235-9.354-39.709-9.453-5.508-.374-10.26 3.795-10.633 9.293-.378 5.503 3.78 10.275 9.284 10.658.324.025 16.695 1.325 36.024 9.204-8.387 14.951-26.805 22.741-44.411 16.685-.145-.05-.294-.1-.433-.14-8.626-2.53-16.545-8.786-21.192-16.744-3.716-6.654-5.18-12.531-6.599-18.208-2.64-10.579-5.588-19.07-14.802-25.64 19.113-8.935 40.769-18.961 66.199-10.977z"/><path d="m136 86.003c16.545 0 30.002-13.458 30.002-29.998 0-16.545-13.457-30.002-30.002-30.002-16.54 0-29.998 13.457-29.998 30.002.001 16.54 13.458 29.998 29.998 29.998zm0-39.999c5.519 0 10.001 4.482 10.001 10.001 0 5.508-4.482 10-10.001 10-5.513 0-10-4.492-10-10 0-5.518 4.487-10.001 10-10.001z"/><path d="m456.006 146.002c-16.545 0-30.003 13.457-30.003 30.002 0 16.54 13.458 29.997 30.003 29.997 16.535 0 29.992-13.457 29.992-29.997 0-16.545-13.457-30.002-29.992-30.002zm0 40.003c-5.519 0-10.001-4.487-10.001-10 0-5.519 4.482-10.001 10.001-10.001 5.508 0 10.001 4.482 10.001 10.001 0 5.513-4.493 10-10.001 10z"/><path d="m306.004 281.003c0 13.786 11.216 25.002 25.002 25.002s24.992-11.216 24.992-25.002-11.206-25.002-24.992-25.002-25.002 11.216-25.002 25.002zm30.002 0c0 2.759-2.251 5-5 5-2.759 0-5-2.241-5-5s2.241-5 5-5c2.749 0 5 2.241 5 5z"/><path d="m61.005 316.006c19.294 0 34.998-15.709 34.998-35.003s-15.704-35.003-34.998-35.003c-19.305 0-35.003 15.709-35.003 35.003s15.698 35.003 35.003 35.003zm0-50.004c8.268 0 15.001 6.733 15.001 15.001s-6.733 15.001-15.001 15.001c-8.272 0-15.001-6.733-15.001-15.001s6.728-15.001 15.001-15.001z"/><path d="m76.001 76.007c5.523 0 10.001-4.482 10.001-10.001 0-5.528-4.478-10-10.001-10s-9.996 4.472-9.996 10c0 5.518 4.473 10.001 9.996 10.001z"/><path d="m146.001 276.003c0 5.518 4.477 10 10 10s10.001-4.482 10.001-10c0-5.519-4.478-10.001-10.001-10.001s-10 4.482-10 10.001z"/><path d="m396.001 236c0 5.528 4.482 10 10.001 10s10.001-4.472 10.001-10c0-5.519-4.482-9.996-10.001-9.996s-10.001 4.477-10.001 9.996z"/><path d="m235.999 86.003c5.528 0 10-4.478 10-9.996 0-5.528-4.472-10.001-10-10.001-5.519 0-9.996 4.473-9.996 10.001 0 5.518 4.477 9.996 9.996 9.996z"/><path d="m466.007 86.003c5.518 0 10-4.478 10-9.996 0-5.528-4.482-10.001-10-10.001-5.528 0-10.001 4.473-10.001 10.001 0 5.518 4.473 9.996 10.001 9.996z"/></g></g></svg> -->
<!-- icon666.com - MILLIONS vector ICONS FREE --><svg id="Capa_1" enable-background="new 0 0 511 511" viewBox="0 0 511 511" xmlns="http://www.w3.org/2000/svg"><g id="Outline_00000016777337523343086340000003671955385218883491_"><path d="m118.198 217.234 14.451 4.02c15.272-54.907 65.789-93.254 122.851-93.254 56.687 0 107.114 38.029 122.632 92.48l14.426-4.111c-8.321-29.198-26.248-55.5-50.478-74.06-25.032-19.174-54.971-29.309-86.58-29.309-63.771 0-120.232 42.863-137.302 104.234z"/><path d="m398 255.5c0-7.944-.66-15.916-1.962-23.693l-14.795 2.477c1.166 6.962 1.757 14.1 1.757 21.217 0 70.304-57.196 127.5-127.5 127.5s-127.5-57.197-127.5-127.501c0-6.846.547-13.717 1.626-20.424l-14.811-2.382c-1.204 7.493-1.815 15.165-1.815 22.806 0 78.575 63.925 142.5 142.5 142.5s142.5-63.925 142.5-142.5z"/><path d="m255.5 143c-62.033 0-112.5 50.467-112.5 112.5s50.467 112.5 112.5 112.5 112.5-50.467 112.5-112.5-50.467-112.5-112.5-112.5zm7.5 209.714v-37.924c2.006.126 4.324.216 6.869.216 13.687 0 33.912-2.584 47.232-15.904 21.3-21.299 15.146-60.253 14.874-61.901l-.876-5.3-5.301-.876c-1.647-.272-40.601-6.425-61.9 14.875-3.493 3.492-6.235 7.464-8.398 11.664-2.163-4.2-4.906-8.171-8.398-11.664-21.302-21.3-60.253-15.148-61.9-14.875l-5.302.875-.876 5.3c-.272 1.648-6.426 40.602 14.874 61.901 13.322 13.321 33.546 15.904 47.232 15.904 2.545 0 4.863-.09 6.869-.216v37.925c-50.271-3.842-90-45.976-90-97.214 0-53.762 43.738-97.5 97.5-97.5s97.5 43.738 97.5 97.5c.001 51.238-39.728 93.372-89.999 97.214zm.004-59.772c-.001-11.027 1.901-26.836 11.502-36.437 11.848-11.849 33.154-11.974 43.252-11.264.709 10.103.584 31.407-11.264 43.253-11.848 11.847-33.152 11.973-43.252 11.264-.13-1.851-.231-4.081-.238-6.557 0-.085 0-.173 0-.259zm-15.008 0c0 .086-.001.174-.001.26-.007 2.476-.108 4.706-.238 6.557-10.1.708-31.405.582-43.252-11.264-11.849-11.849-11.973-33.157-11.265-43.253 10.105-.707 31.406-.582 43.253 11.264 9.602 9.599 11.504 25.409 11.503 36.436z"/><path d="m511 293.495v-75.99l-56.585-20.122-17.166-41.443 25.783-54.24-22.41-22.409-10.607 10.606 14.925 14.924-24.101 50.7 22.269 53.762 52.892 18.808v54.818l-52.892 18.808-22.269 53.762 24.101 50.7-14.966 14.967 10.605 10.607 22.453-22.453-25.783-54.24 17.166-41.443z"/><path d="m66.06 406.179 24.101-50.7-22.269-53.762-52.892-18.808v-54.818l52.892-18.808 22.269-53.762-24.101-50.7 38.761-38.761 50.701 24.1 53.76-22.268 18.81-52.892h54.816l18.81 52.892 53.76 22.268 50.701-24.1 13.257 13.257 10.607-10.606-20.743-20.743-54.24 25.783-41.444-17.166-20.122-56.585h-75.988l-20.122 56.585-41.444 17.166-54.24-25.783-53.732 53.732 25.783 54.24-17.166 41.443-56.585 20.122v75.99l56.585 20.122 17.166 41.443-25.783 54.24 23.191 23.191 10.608-10.606z"/><path d="m406.179 444.94-50.701-24.1-53.76 22.268-18.81 52.892h-54.816l-18.81-52.892-53.76-22.268-50.701 24.1-12.476-12.476-10.606 10.608 19.961 19.96 54.24-25.783 41.444 17.166 20.122 56.585h75.988l20.122-56.585 41.444-17.166 54.24 25.783 20.699-20.699-10.605-10.608z"/><path d="m248 45.5h15v15h-15z"/><path d="m248 75.5h15v15h-15z"/><path d="m248 450.5h15v15h-15z"/><path d="m248 420.5h15v15h-15z"/><path d="m126.024 126.024h14.999v14.999h-14.999z" transform="matrix(.707 -.707 .707 .707 -55.308 133.528)"/><path d="m104.811 104.811h15v15h-15z" transform="matrix(.707 -.707 .707 .707 -46.521 112.311)"/><path d="m391.189 391.189h15v15h-15z" transform="matrix(.707 -.707 .707 .707 -165.142 398.689)"/><path d="m369.977 369.976h14.999v14.999h-14.999z" transform="matrix(.707 -.707 .707 .707 -156.356 377.488)"/><path d="m45.5 248h15v15h-15z"/><path d="m75.5 248h15v15h-15z"/><path d="m420.5 248h15v15h-15z"/><path d="m450.5 248h15v15h-15z"/><path d="m104.811 391.189h15v15h-15z" transform="matrix(.707 -.707 .707 .707 -249.021 196.189)"/><path d="m126.024 369.976h14.999v14.999h-14.999z" transform="matrix(.707 -.707 .707 .707 -227.804 204.968)"/><path d="m391.189 104.811h15v15h-15z" transform="matrix(.707 -.707 .707 .707 37.357 314.811)"/><path d="m369.976 126.025h14.999v14.999h-14.999z" transform="matrix(.707 -.707 .707 .707 16.14 306.016)"/></g></svg>