<!-- icon666.com - MILLIONS vector ICONS FREE --><svg version="1.1" id="Capa_1" xmlns="http://www.w3.org/2000/svg" xmlns:xlink="http://www.w3.org/1999/xlink" x="0px" y="0px" viewBox="0 0 512 512" style="enable-background:new 0 0 512 512;" xml:space="preserve"><g><g><g><rect x="273.421" y="388.41" width="15" height="15"/><rect x="248.42" y="388.41" width="15" height="15"/><rect x="223.42" y="388.41" width="15" height="15"/><polygon points="170.211,194.8 185.171,193.65 177.351,92.02 251.841,15 260.151,15 334.651,92.02 324.281,226.9 324.271,226.95 339.231,228.1 350.132,86.47 350.132,86.44 266.531,0.02 245.48,0 161.891,86.43 161.872,86.44 170.201,194.75 "/><rect x="189.568" y="61.839" transform="matrix(0.6934 -0.7206 0.7206 0.6934 17.6137 180.072)" width="61.652" height="15.001"/><rect x="294.583" y="254.893" transform="matrix(0.9971 0.0767 -0.0767 0.9971 23.8934 -22.2846)" width="15" height="90.094"/><rect x="301.293" y="205.146" transform="matrix(0.9971 0.0767 -0.0767 0.9971 17.2193 -23.0576)" width="15" height="15.001"/><rect x="299.379" y="230.072" transform="matrix(0.9971 0.0767 -0.0767 0.9971 19.1253 -22.8373)" width="15" height="15.001"/><path d="M336.763,260.167l1.319-17.158l0.01-0.05l-14.91-1.15h-0.05l-4.017,52.235l-5.344,69.445v0.051l-0.47,6.109H198.7 l-0.469-6.103h0.002l-8.512-110.658l-0.001,0.001l-3.41-44.33v-0.05l-14.96,1.15l3.886,50.509l-67.557,33.953v69.425h75.511 l1.62,21.053l13.943,0.005v37.562h114.5v-37.521l13.937,0.005l1.622-21.1h35.048l0.051-15h-33.945l4.355-56.643l1.199-15.577 l53.8,27.04v45.18h-10.46l-0.05,14.95l25.51,0.05v-69.43L336.763,260.167z M122.68,348.547v-45.176l53.801-27.039l3.902,50.712 l1.653,21.503H122.68z M298.255,407.167h-84.5v-22.515h84.5V407.167z"/><rect x="218.67" y="480.5" width="15" height="16.595"/><rect x="218.67" y="430.5" width="15" height="15"/><rect x="218.67" y="455.5" width="15" height="15"/><rect x="278.331" y="430.5" width="15" height="16.595"/><rect x="278.331" y="457.1" width="15" height="15"/><rect x="278.331" y="482.1" width="15" height="15"/><rect x="248.5" y="497" width="15" height="15"/><rect x="248.5" y="472" width="15" height="15"/><rect x="248.5" y="430.5" width="15" height="31.5"/><path d="M301.36,169c5.54-8.65,8.471-18.68,8.471-29c0-7.27-1.42-14.32-4.23-20.96c-2.71-6.41-6.59-12.16-11.54-17.11 c-4.939-4.94-10.7-8.82-17.109-11.53c-6.631-2.81-13.681-4.23-20.95-4.23c-7.271,0-14.32,1.42-20.96,4.23 c-6.41,2.71-12.16,6.59-17.11,11.53c-4.939,4.95-8.82,10.7-11.53,17.11c-2.81,6.64-4.229,13.69-4.229,20.96 s1.42,14.32,4.229,20.95c2.71,6.42,6.591,12.17,11.53,17.12c4.95,4.94,10.7,8.82,17.11,11.53c6.64,2.81,13.689,4.23,20.96,4.23 c2.24,0,4.5-0.14,6.72-0.41l0.05-0.01l-1.85-14.83v-0.05h-0.05c-1.61,0.2-3.25,0.3-4.87,0.3c-10.36,0-20.12-4.04-27.46-11.37 c-7.33-7.34-11.37-17.1-11.37-27.46s4.04-20.12,11.37-27.46c7.35-7.33,17.1-11.37,27.46-11.37c10.359,0,20.12,4.04,27.46,11.37 c7.33,7.34,11.37,17.1,11.37,27.46c0.01,15.03-8.41,28.44-21.98,35l-0.04,0.02l6.5,13.46l0.021,0.05l0.05-0.02 C288.36,184.17,295.961,177.43,301.36,169z"/><path d="M283.597,196.095c-8.621,4.25-17.905,6.405-27.596,6.405c-9.409,0-18.449-2.037-26.87-6.053l-6.457,13.539 c10.453,4.986,21.666,7.514,33.327,7.514c12.011,0,23.526-2.675,34.229-7.951L283.597,196.095z"/><path d="M245.697,126.687c2.769-2.146,6.081-3.359,9.581-3.506l-0.629-14.986c-6.628,0.278-12.902,2.574-18.144,6.639 L245.697,126.687z"/><path d="M282.516,122.38c-3.676-5.523-8.881-9.702-15.053-12.085l-5.402,13.993c3.217,1.242,6.047,3.516,7.967,6.401 L282.516,122.38z"/><path d="M256.003,171.833c17.553,0,31.832-14.28,31.832-31.833c0-1.861-0.163-3.729-0.483-5.552l-14.773,2.603 c0.171,0.966,0.257,1.958,0.257,2.949c0,9.282-7.551,16.833-16.833,16.833V171.833z"/><polygon points="256.003,171.833 256.003,171.833 256.002,171.833 "/><path d="M279.505,251.5h-47v47h47V251.5z M264.505,283.5h-17v-17h17V283.5z"/><path d="M232.505,356.894h47v-47h-47V356.894z M247.505,324.894h17v17h-17V324.894z"/><rect x="130.281" y="328" width="44.722" height="15"/><rect x="336.81" y="328" width="44.722" height="15"/></g></g></g></svg>