<?xml version="1.0" encoding="UTF-8" standalone="no"?>
<!DOCTYPE svg PUBLIC "-//W3C//DTD SVG 1.1//EN" "http://www.w3.org/Graphics/SVG/1.1/DTD/svg11.dtd">
<!-- Created with Vectornator (http://vectornator.io/) -->
<svg height="95.55pt" stroke-miterlimit="10" style="fill-rule:nonzero;clip-rule:evenodd;stroke-linecap:round;stroke-linejoin:round;" version="1.1" viewBox="0 0 353.2 95.55" width="353.2pt" xml:space="preserve" xmlns="http://www.w3.org/2000/svg" xmlns:xlink="http://www.w3.org/1999/xlink">
<defs/>
<g id="Без-названия">
<g fill="#1d1d1b" opacity="1" stroke="none">
<path d="M10.9 29.28L10.9 3.504C10.9 3.184 11.004 2.92 11.212 2.712C11.42 2.504 11.684 2.4 12.004 2.4L16.516 2.4C16.836 2.4 17.1 2.504 17.308 2.712C17.516 2.92 17.62 3.184 17.62 3.504L17.62 28.176C17.62 28.496 17.724 28.76 17.932 28.968C18.14 29.176 18.404 29.28 18.724 29.28L40.036 29.28C40.356 29.28 40.62 29.384 40.828 29.592C41.036 29.8 41.14 30.064 41.14 30.384L41.14 34.896C41.14 35.216 41.036 35.48 40.828 35.688C40.62 35.896 40.356 36 40.036 36L17.62 36C15.764 36 14.18 35.344 12.868 34.032C11.556 32.72 10.9 31.136 10.9 29.28Z"/>
<path d="M71.764 9.12L53.812 9.12C53.492 9.12 53.228 9.224 53.02 9.432C52.812 9.64 52.708 9.904 52.708 10.224L52.708 21.456C52.708 21.776 52.812 22.04 53.02 22.248C53.228 22.456 53.492 22.56 53.812 22.56L71.764 22.56C72.084 22.56 72.348 22.456 72.556 22.248C72.764 22.04 72.868 21.776 72.868 21.456L72.868 10.224C72.868 9.904 72.764 9.64 72.556 9.432C72.348 9.224 72.084 9.12 71.764 9.12ZM45.988 34.896L45.988 9.12C45.988 7.264 46.644 5.68 47.956 4.368C49.268 3.056 50.852 2.4 52.708 2.4L72.868 2.4C74.724 2.4 76.308 3.056 77.62 4.368C78.932 5.68 79.588 7.264 79.588 9.12L79.588 34.896C79.588 35.216 79.484 35.48 79.276 35.688C79.068 35.896 78.804 36 78.484 36L73.972 36C73.652 36 73.388 35.896 73.18 35.688C72.972 35.48 72.868 35.216 72.868 34.896L72.868 30.384C72.868 30.064 72.764 29.8 72.556 29.592C72.348 29.384 72.084 29.28 71.764 29.28L53.812 29.28C53.492 29.28 53.228 29.384 53.02 29.592C52.812 29.8 52.708 30.064 52.708 30.384L52.708 34.896C52.708 35.216 52.604 35.48 52.396 35.688C52.188 35.896 51.924 36 51.604 36L47.092 36C46.772 36 46.508 35.896 46.3 35.688C46.092 35.48 45.988 35.216 45.988 34.896Z"/>
</g>
<path d="M95.76 9.12C95.76 7.264 96.416 5.68 97.728 4.368C99.04 3.056 100.624 2.4 102.48 2.4L124.848 2.4C125.168 2.4 125.44 2.512 125.664 2.736C125.888 2.96 126 3.216 126 3.504L126 8.016C126 8.336 125.888 8.6 125.664 8.808C125.44 9.016 125.168 9.12 124.848 9.12L103.584 9.12C103.264 9.12 103 9.232 102.792 9.456C102.584 9.68 102.48 9.936 102.48 10.224L102.48 14.688C102.48 15.008 102.584 15.28 102.792 15.504C103 15.728 103.264 15.84 103.584 15.84L122.64 15.84C124.496 15.84 126.072 16.496 127.368 17.808C128.664 19.12 129.312 20.704 129.312 22.56L129.312 29.28C129.312 31.136 128.664 32.72 127.368 34.032C126.072 35.344 124.496 36 122.64 36C120.176 36 115.968 35.992 110.016 35.976C104.064 35.96 99.68 35.952 96.864 35.952C96.544 35.952 96.28 35.848 96.072 35.64C95.864 35.432 95.76 35.168 95.76 34.848L95.76 30.384C95.76 30.064 95.864 29.8 96.072 29.592C96.28 29.384 96.544 29.28 96.864 29.28L121.488 29.28C121.808 29.28 122.08 29.168 122.304 28.944C122.528 28.72 122.64 28.448 122.64 28.128L122.64 23.664C122.64 23.376 122.528 23.12 122.304 22.896C122.08 22.672 121.808 22.56 121.488 22.56L102.48 22.56C100.624 22.56 99.04 21.904 97.728 20.592C96.416 19.28 95.76 17.696 95.76 15.84L95.76 9.12Z" fill="#1d1d1b" opacity="1" stroke="none"/>
<path d="M143.1 29.28L143.1 9.12C143.1 7.264 143.756 5.68 145.068 4.368C146.38 3.056 147.964 2.4 149.82 2.4L172.236 2.4C172.556 2.4 172.82 2.504 173.028 2.712C173.236 2.92 173.34 3.184 173.34 3.504L173.34 8.016C173.34 8.336 173.236 8.6 173.028 8.808C172.82 9.016 172.556 9.12 172.236 9.12L150.924 9.12C150.604 9.12 150.34 9.224 150.132 9.432C149.924 9.64 149.82 9.904 149.82 10.224L149.82 14.736C149.82 15.056 149.924 15.32 150.132 15.528C150.34 15.736 150.604 15.84 150.924 15.84L172.236 15.84C172.556 15.84 172.82 15.944 173.028 16.152C173.236 16.36 173.34 16.624 173.34 16.944L173.34 21.456C173.34 21.776 173.236 22.04 173.028 22.248C172.82 22.456 172.556 22.56 172.236 22.56L150.924 22.56C150.604 22.56 150.34 22.664 150.132 22.872C149.924 23.08 149.82 23.344 149.82 23.664L149.82 28.176C149.82 28.496 149.924 28.76 150.132 28.968C150.34 29.176 150.604 29.28 150.924 29.28L172.236 29.28C172.556 29.28 172.82 29.384 173.028 29.592C173.236 29.8 173.34 30.064 173.34 30.384L173.34 34.896C173.34 35.216 173.236 35.48 173.028 35.688C172.82 35.896 172.556 36 172.236 36L149.82 36C147.964 36 146.38 35.344 145.068 34.032C143.756 32.72 143.1 31.136 143.1 29.28Z" fill="#1d1d1b" opacity="1" stroke="none"/>
<path d="M212.736 9.12L194.784 9.12C194.464 9.12 194.2 9.224 193.992 9.432C193.784 9.64 193.68 9.904 193.68 10.224L193.68 21.456C193.68 21.776 193.784 22.04 193.992 22.248C194.2 22.456 194.464 22.56 194.784 22.56L212.736 22.56C213.056 22.56 213.32 22.456 213.528 22.248C213.736 22.04 213.84 21.776 213.84 21.456L213.84 10.224C213.84 9.904 213.736 9.64 213.528 9.432C213.32 9.224 213.056 9.12 212.736 9.12ZM220.56 9.12L220.56 22.56C220.56 24.416 219.904 26 218.592 27.312C217.28 28.624 215.696 29.28 213.84 29.28L211.584 29.28C211.392 29.28 211.248 29.376 211.152 29.568C211.088 29.76 211.12 29.92 211.248 30.048L216.432 35.184C216.528 35.344 216.56 35.52 216.528 35.712C216.432 35.904 216.288 36 216.096 36L208.8 36C208.032 36 207.408 35.728 206.928 35.184L201.792 30.048C201.216 29.536 200.576 29.28 199.872 29.28L194.784 29.28C194.464 29.28 194.2 29.384 193.992 29.592C193.784 29.8 193.68 30.064 193.68 30.384L193.68 34.896C193.68 35.216 193.576 35.48 193.368 35.688C193.16 35.896 192.896 36 192.576 36L188.064 36C187.744 36 187.48 35.896 187.272 35.688C187.064 35.48 186.96 35.216 186.96 34.896L186.96 9.12C186.96 7.264 187.616 5.68 188.928 4.368C190.24 3.056 191.824 2.4 193.68 2.4L213.84 2.4C215.696 2.4 217.28 3.056 218.592 4.368C219.904 5.68 220.56 7.264 220.56 9.12Z" fill="#e30613" opacity="1" stroke="none"/>
<path d="M187.23 53.4394C187.23 53.1194 187.334 52.8554 187.542 52.6474C187.75 52.4394 188.014 52.3354 188.334 52.3354L219.726 52.3354C220.046 52.3354 220.31 52.4394 220.518 52.6474C220.726 52.8554 220.83 53.1194 220.83 53.4394L220.83 57.9514C220.83 58.2714 220.726 58.5354 220.518 58.7434C220.31 58.9514 220.046 59.0554 219.726 59.0554L208.494 59.0554C208.174 59.0554 207.91 59.1594 207.702 59.3674C207.494 59.5754 207.39 59.8394 207.39 60.1594L207.39 84.8314C207.39 85.1514 207.286 85.4154 207.078 85.6234C206.87 85.8314 206.606 85.9354 206.286 85.9354L201.774 85.9354C201.454 85.9354 201.19 85.8314 200.982 85.6234C200.774 85.4154 200.67 85.1514 200.67 84.8314L200.67 60.1594C200.67 59.8394 200.566 59.5754 200.358 59.3674C200.15 59.1594 199.886 59.0554 199.566 59.0554L188.334 59.0554C188.014 59.0554 187.75 58.9514 187.542 58.7434C187.334 58.5354 187.23 58.2714 187.23 57.9514L187.23 53.4394Z" fill="#e30613" opacity="1" stroke="none"/>
<path d="M241.41 84.8314C241.41 85.1514 241.306 85.4154 241.098 85.6234C240.89 85.8314 240.626 85.9354 240.306 85.9354L235.794 85.9354C235.474 85.9354 235.21 85.8314 235.002 85.6234C234.794 85.4154 234.69 85.1514 234.69 84.8314L234.69 53.4394C234.69 53.1194 234.794 52.8554 235.002 52.6474C235.21 52.4394 235.474 52.3354 235.794 52.3354L240.306 52.3354C240.626 52.3354 240.89 52.4394 241.098 52.6474C241.306 52.8554 241.41 53.1194 241.41 53.4394L241.41 84.8314Z" fill="#1d1d1b" opacity="1" stroke="none"/>
<path d="M249.09 53.4394C249.09 53.1194 249.194 52.8554 249.402 52.6474C249.61 52.4394 249.874 52.3354 250.194 52.3354L254.706 52.3354C255.506 52.3354 256.114 52.6234 256.53 53.1994L272.61 71.7754C276.162 67.6474 281.522 61.4554 288.69 53.1994C289.138 52.6234 289.746 52.3354 290.514 52.3354L295.026 52.3354C295.346 52.3354 295.61 52.4394 295.818 52.6474C296.026 52.8554 296.13 53.1194 296.13 53.4394L296.13 84.8314C296.13 85.1514 296.018 85.4154 295.794 85.6234C295.57 85.8314 295.314 85.9354 295.026 85.9354L290.514 85.9354C290.194 85.9354 289.93 85.8314 289.722 85.6234C289.514 85.4154 289.41 85.1514 289.41 84.8314L289.41 63.7114C289.41 63.4234 289.338 63.2554 289.194 63.2074C289.05 63.1594 288.882 63.2474 288.69 63.4714C285.81 66.7674 280.69 72.6874 273.33 81.2314C273.106 81.4554 272.866 81.5674 272.61 81.5674C272.354 81.5674 272.114 81.4554 271.89 81.2314C264.53 72.6874 259.41 66.7674 256.53 63.4714C256.338 63.2474 256.17 63.1594 256.026 63.2074C255.882 63.2554 255.81 63.4394 255.81 63.7594L255.81 84.8314C255.81 85.1514 255.706 85.4154 255.498 85.6234C255.29 85.8314 255.026 85.9354 254.706 85.9354L250.242 85.9354C249.922 85.9354 249.65 85.8314 249.426 85.6234C249.202 85.4154 249.09 85.1514 249.09 84.8314L249.09 53.4394Z" fill="#1d1d1b" opacity="1" stroke="none"/>
<path d="M312.69 79.2154L312.69 59.0554C312.69 57.1994 313.346 55.6154 314.658 54.3034C315.97 52.9914 317.554 52.3354 319.41 52.3354L341.826 52.3354C342.146 52.3354 342.41 52.4394 342.618 52.6474C342.826 52.8554 342.93 53.1194 342.93 53.4394L342.93 57.9514C342.93 58.2714 342.826 58.5354 342.618 58.7434C342.41 58.9514 342.146 59.0554 341.826 59.0554L320.514 59.0554C320.194 59.0554 319.93 59.1594 319.722 59.3674C319.514 59.5754 319.41 59.8394 319.41 60.1594L319.41 64.6714C319.41 64.9914 319.514 65.2554 319.722 65.4634C319.93 65.6714 320.194 65.7754 320.514 65.7754L341.826 65.7754C342.146 65.7754 342.41 65.8794 342.618 66.0874C342.826 66.2954 342.93 66.5594 342.93 66.8794L342.93 71.3914C342.93 71.7114 342.826 71.9754 342.618 72.1834C342.41 72.3914 342.146 72.4954 341.826 72.4954L320.514 72.4954C320.194 72.4954 319.93 72.5994 319.722 72.8074C319.514 73.0154 319.41 73.2794 319.41 73.5994L319.41 78.1114C319.41 78.4314 319.514 78.6954 319.722 78.9034C319.93 79.1114 320.194 79.2154 320.514 79.2154L341.826 79.2154C342.146 79.2154 342.41 79.3194 342.618 79.5274C342.826 79.7354 342.93 79.9994 342.93 80.3194L342.93 84.8314C342.93 85.1514 342.826 85.4154 342.618 85.6234C342.41 85.8314 342.146 85.9354 341.826 85.9354L319.41 85.9354C317.554 85.9354 315.97 85.2794 314.658 83.9674C313.346 82.6554 312.69 81.0714 312.69 79.2154Z" fill="#1d1d1b" opacity="1" stroke="none"/>
</g>
</svg>
