<!-- icon666.com - MILLIONS vector ICONS FREE --><svg version="1.1" id="Capa_1" xmlns="http://www.w3.org/2000/svg" xmlns:xlink="http://www.w3.org/1999/xlink" x="0px" y="0px" viewBox="0 0 512 512" style="enable-background:new 0 0 512 512;" xml:space="preserve"><g><g><g><rect x="134.17" y="101.121" width="14.928" height="15"/><rect x="157.09" y="101.121" width="15" height="15"/><rect x="133.37" y="347.46" width="15" height="15"/><rect x="156.37" y="347.46" width="15" height="15"/><path d="M361.15,322.399c-8.08,8.08-12.53,18.83-12.54,30.26c0.01,11.44,4.46,22.19,12.54,30.27 c8.08,8.08,18.83,12.53,30.27,12.54c11.43-0.01,22.18-4.46,30.26-12.54c8.08-8.08,12.54-18.83,12.54-30.27 c0-11.43-4.46-22.18-12.54-30.26c-8.08-8.09-18.83-12.54-30.26-12.54C379.98,309.858,369.23,314.309,361.15,322.399z M419.22,352.658c-0.03,15.3-12.5,27.78-27.8,27.8c-15.31-0.02-27.78-12.5-27.81-27.8c0.03-15.3,12.5-27.77,27.81-27.8 C406.72,324.887,419.19,337.358,419.22,352.658z"/><path d="M474.86,320.937c-0.62-1.63-1.29-3.25-2.01-4.84l26.27-26.27l-44.84-44.83l-0.03-0.04l-26.27,26.27 c-1.58-0.72-3.21-1.39-4.84-2.01v-37.09l-63.45-0.05v37.14c-1.62,0.62-3.25,1.29-4.84,2.01l-26.23-26.23l-0.03-0.04 l-22.138,22.138l0.044-67.929l13.141,13.141l19.864-19.863c0.394,0.167,0.79,0.331,1.188,0.491v28.092h50.837v-28.092 c0.397-0.16,0.794-0.324,1.188-0.491l19.863,19.863l35.947-35.947l-19.863-19.864c0.167-0.394,0.331-0.79,0.491-1.188h28.092 v-50.838h-28.092c-0.16-0.397-0.324-0.794-0.491-1.188l19.863-19.863l-35.947-35.947l-19.863,19.863 c-0.395-0.167-0.791-0.331-1.188-0.491V38.753h-50.837v28.092c-0.397,0.16-0.793,0.324-1.188,0.491l-19.863-19.863L283.689,83.42 l19.863,19.863c-0.167,0.395-0.331,0.791-0.491,1.188H274.97v32.207l-40.74-40.74l-33.36,33.36c-2.89-1.33-5.88-2.57-8.89-3.66 v-47.15l-77.46-0.05v47.2c-2.98,1.1-5.97,2.33-8.87,3.69L72.3,95.978l-0.03-0.04l-54.77,54.77l17,17l0.04,0.03l10.57-10.57 l0.03-0.03l-6.42-6.43l33.55-33.56l30.47,30.48l0.03,0.02l4.89-2.58c5.32-2.8,10.9-5.12,16.58-6.88l5.28-1.64v-43.11h47.46v43.07 l5.28,1.68c5.81,1.8,11.39,4.11,16.61,6.85l4.89,2.59l30.47-30.48l33.56,33.56l-30.48,30.47l-0.02,0.03l2.58,4.89 c2.8,5.32,5.12,10.9,6.88,16.58l1.63,5.28h43.12v47.45h-43.08l-1.67,5.28c-1.76,5.69-4.08,11.27-6.88,16.59l-2.58,4.89l30.5,30.5 l-33.56,33.55l-30.47-30.47l-0.03-0.03l-4.89,2.58c-5.39,2.85-10.97,5.17-16.58,6.91l-5.28,1.64v43.09h-47.46v-9.53l-15-0.05 v24.53l77.46,0.05v-47.19c2.97-1.09,5.95-2.33,8.87-3.7l33.35,33.35l0.03,0.04l36.6-36.607v12.777l14.95,0.05l0.05-7.73h32.98 l1.67-5.28c1.34-4.31,3.09-8.54,5.22-12.57l2.58-4.9l-23.35-23.35l23.66-23.65l23.32,23.32l0.03,0.03l4.89-2.58 c4.03-2.13,8.26-3.89,12.58-5.23l5.28-1.63v-33.01h33.45v32.97l5.28,1.67c4.32,1.34,8.55,3.1,12.58,5.23l4.9,2.58l23.35-23.35 l23.65,23.65l-23.32,23.33l-0.03,0.02l2.58,4.89c2.13,4.03,3.89,8.27,5.22,12.58l1.64,5.28H497v33.46h-32.97l-1.68,5.28 c-1.33,4.32-3.09,8.55-5.22,12.58l-2.58,4.89l23.35,23.35l-4.38,4.39l10.65,10.65v-0.1l14.91-14.9l0.04-0.04l-26.27-26.26 c0.72-1.59,1.39-3.22,2.01-4.84h37.09v-0.001l0.05-63.45H474.86z M259.3,192.96L259.3,192.96c-1.1-2.991-2.34-5.971-3.69-8.871 l28.779-28.779h18.673c0.16,0.397,0.324,0.793,0.491,1.188l-19.863,19.864l16.598,16.598H259.3z M309.98,316.098 c-0.71,1.58-1.39,3.21-2.01,4.84h-27.248l8.239-8.24l0.04-0.03l-33.39-33.39c1.35-2.9,2.59-5.88,3.68-8.87h43.85l-19.42,19.42 L309.98,316.098z M304.902,176.361l16.901-16.901l-2.578-4.891c-1.5-2.848-2.749-5.868-3.71-8.976l-1.634-5.284H289.97v-20.837 h23.911l1.635-5.283c0.962-3.109,2.21-6.13,3.711-8.977l2.577-4.891l-16.901-16.9l14.734-14.734l16.9,16.901l4.891-2.577 c2.849-1.501,5.869-2.75,8.975-3.71l5.285-1.634V53.753h20.837v23.913l5.285,1.634c3.106,0.96,6.126,2.208,8.976,3.709 l4.891,2.577l16.9-16.9l14.734,14.734l-16.901,16.9l2.577,4.891c1.501,2.849,2.75,5.869,3.711,8.976l1.634,5.284h23.912v20.838 h-23.912l-1.634,5.284c-0.961,3.108-2.21,6.128-3.71,8.976l-2.578,4.891l16.901,16.901l-14.734,14.734l-16.9-16.9l-4.891,2.577 c-2.849,1.501-5.869,2.749-8.977,3.71l-5.284,1.634v23.912h-20.837v-23.912l-5.284-1.634c-3.107-0.961-6.127-2.209-8.977-3.711 l-4.891-2.576l-16.9,16.9L304.902,176.361z"/><path d="M462.98,430.408l-8.73,8.74l-23.35-23.35l-4.9,2.58c-4.03,2.12-8.26,3.88-12.58,5.22l-5.28,1.64v33.01h-33.45v-32.98 l-5.28-1.67c-4.32-1.34-8.55-3.1-12.58-5.22l-4.89-2.58l-23.36,23.35l-23.65-23.66l23.32-23.32l0.03-0.03l-2.58-4.89 c-2.13-4.04-3.89-8.27-5.22-12.58l-1.64-5.28h-33.01v-10.78l-14.95-0.05l-0.05,25.83h37.14c0.62,1.63,1.3,3.25,2.01,4.84 l-26.23,26.23l-0.03,0.03l44.83,44.84l0.04,0.03l26.26-26.26c1.59,0.71,3.22,1.39,4.84,2.01v37.09l63.45,0.05v-37.14 c1.63-0.62,3.26-1.3,4.84-2.01l26.23,26.23l0.04,0.03l19.34-19.34l-10.57-10.57L462.98,430.408z"/><path d="M344.09,151.907c6.07,6.07,14.043,9.105,22.017,9.105c7.973,0,15.947-3.035,22.017-9.105 c12.14-12.14,12.14-31.893,0-44.034c-12.14-12.14-31.893-12.14-44.034,0C331.95,120.014,331.95,139.767,344.09,151.907z M354.696,118.48c6.292-6.291,16.529-6.292,22.821,0s6.292,16.529,0,22.821c-6.292,6.291-16.529,6.291-22.821,0 C348.405,135.009,348.405,124.772,354.696,118.48z"/><path d="M366.107,164.397v15c14.749,0,28.625-6.508,38.068-17.855l-11.529-9.596 C386.061,159.858,376.387,164.397,366.107,164.397z"/><path d="M336.199,147.116c-2.065-3.576-3.455-7.453-4.131-11.521l-14.797,2.458c0.972,5.851,2.97,11.424,5.939,16.565 L336.199,147.116z"/><path d="M366.107,95.384v-15c-15.256,0-29.43,6.877-38.889,18.867l11.777,9.29C345.591,100.18,355.473,95.384,366.107,95.384z"/><path d="M334.718,115.532l-13.635-6.252c-2.468,5.383-3.934,11.118-4.357,17.046l14.962,1.067 C331.983,123.266,333.002,119.274,334.718,115.532z"/><path d="M426.403,390.27l10.48,10.731c13.129-12.823,20.36-29.991,20.36-48.342h-15 C442.244,366.938,436.618,380.295,426.403,390.27z"/><path d="M323.848,352.66h15c0-28.987,23.582-52.569,52.569-52.569c1.636,0,3.287,0.076,4.906,0.225l1.378-14.937 c-2.076-0.191-4.19-0.289-6.284-0.289C354.159,285.092,323.848,315.402,323.848,352.66z"/><path d="M404.922,301.84c4.224,1.12,8.303,2.772,12.125,4.911l7.326-13.09c-4.918-2.753-10.17-4.879-15.608-6.32L404.922,301.84z "/><path d="M424.297,311.639c3.416,2.742,6.486,5.906,9.123,9.403l11.976-9.032c-3.385-4.488-7.324-8.548-11.709-12.068 L424.297,311.639z"/><path d="M115.77,194.209c-4.86,4.87-8.69,10.54-11.35,16.85c-2.77,6.53-4.17,13.47-4.17,20.63c0,7.15,1.4,14.09,4.17,20.63 c2.66,6.31,6.49,11.98,11.35,16.84c4.87,4.87,10.54,8.69,16.85,11.36c6.53,2.77,13.47,4.17,20.63,4.17 c7.16,0,14.1-1.4,20.63-4.17c6.31-2.67,11.98-6.49,16.85-11.36c4.86-4.86,8.69-10.53,11.35-16.84 c2.77-6.54,4.17-13.48,4.17-20.63c0-7.16-1.4-14.1-4.17-20.63c-2.66-6.31-6.49-11.98-11.35-16.85 c-4.87-4.87-10.54-8.69-16.85-11.36c-6.53-2.76-13.47-4.16-20.63-4.16c-7.16,0-14.1,1.4-20.63,4.16 C126.31,185.519,120.64,189.339,115.77,194.209z M180.12,204.819c7.17,7.18,11.13,16.72,11.13,26.87 c0,10.14-3.96,19.68-11.13,26.87c-7.19,7.17-16.73,11.13-26.87,11.13s-19.68-3.96-26.87-11.13 c-7.17-7.19-11.13-16.73-11.13-26.87c0-10.15,3.96-19.69,11.13-26.87c7.18-7.18,16.73-11.13,26.87-11.13 S172.94,197.637,180.12,204.819z"/><path d="M129.47,345.457l0.05-18.6l-5.28-1.67c-5.68-1.76-11.26-4.08-16.58-6.89l-4.89-2.58l-30.5,30.5l-33.56-33.55l30.48-30.47 l0.02-0.03l-2.58-4.89c-2.8-5.31-5.11-10.89-6.88-16.59l-1.64-5.28H15v-47.45h43.08l1.67-5.28c1.77-5.69,4.08-11.27,6.88-16.58 l2.58-4.9l-13.49-13.49l-0.04-0.04l-10.57,10.57l-0.03,0.04l5.81,5.81c-1.35,2.9-2.59,5.88-3.68,8.87H0.05L0,270.408h47.21 c1.09,3,2.33,5.98,3.68,8.87l-33.35,33.35l-0.04,0.04l54.77,54.77l33.38-33.39c2.9,1.35,5.88,2.59,8.87,3.68v7.68L129.47,345.457 z"/><path d="M67.338,231.686c0,46.826,38.096,84.921,84.921,84.921v-15c-38.555,0-69.921-31.367-69.921-69.921H67.338z"/><path d="M152.259,161.764c4.531,0,9.062,0.436,13.466,1.294l2.871-14.723c-5.348-1.043-10.845-1.572-16.337-1.572V161.764z"/><path d="M179.208,151.132l-4.758,14.226c4.266,1.427,8.418,3.282,12.341,5.514l7.418-13.037 C189.442,155.121,184.395,152.866,179.208,151.132z"/><path d="M194.331,175.832c17.699,13.355,27.85,33.713,27.85,55.854c0,8.634-1.552,17.058-4.614,25.037l14.005,5.373 c3.722-9.701,5.609-19.932,5.609-30.41c0-26.89-12.325-51.612-33.815-67.827L194.331,175.832z"/><path d="M260.381,149.819l-26.021-26.021l-26.021,26.021l26.021,26.021L260.381,149.819z M229.551,149.819l4.809-4.809 l4.809,4.809l-4.809,4.809L229.551,149.819z"/><path d="M45.338,312.819L71.36,338.84l26.021-26.021L71.36,286.798L45.338,312.819z M71.36,317.628l-4.809-4.809l4.809-4.809 l4.809,4.809L71.36,317.628z"/><rect x="445.391" y="279.517" transform="matrix(0.7071 0.7071 -0.7071 0.7071 338.8456 -234.8328)" width="15" height="24.18"/><rect x="321.97" y="402.955" transform="matrix(-0.7071 -0.7071 0.7071 -0.7071 268.9587 941.4954)" width="15" height="24.18"/></g></g></g></svg>