<!-- icon666.com - MILLIONS vector ICONS FREE --><svg version="1.1" id="Capa_1" xmlns="http://www.w3.org/2000/svg" xmlns:xlink="http://www.w3.org/1999/xlink" x="0px" y="0px" viewBox="0 0 512 512" style="enable-background:new 0 0 512 512;" xml:space="preserve"><g><g><g><rect x="276.249" y="69.473" width="15.029" height="15.029"/><rect x="251.201" y="69.473" width="15.029" height="15.029"/><rect x="156.85" y="69.473" width="84.331" height="15.029"/><rect x="249.367" y="391.539" width="15.029" height="15.029"/><rect x="274.415" y="391.539" width="15.029" height="15.029"/><rect x="224.319" y="391.539" width="15.029" height="15.029"/><path d="M496.971,157.652H402.56l-42.852-34.997V55.386l23.535-19.217l0.04-0.03l-9.478-11.602l-0.03-0.04L344.7,48.242 l-0.002,8.709h-30.901l0.004-9.039l-54.194-3.617h-0.05l-1.002,14.989l40.217,2.695v54.454l-112.917,13.635l-77.204-77.204 l-3.859-3.86l138.816,9.288h0.05l1.002-14.999L86.498,32.716c-2.783-1.751-5.712-3.272-8.789-4.522 c-6.773-2.745-13.907-4.138-21.231-4.138h-0.06c-7.304,0-14.448,1.393-21.221,4.138c-7.003,2.845-13.285,7.013-18.666,12.394 c-5.38,5.38-9.548,11.662-12.394,18.676C1.383,66.046,0,73.19,0,80.504c0,3.777,0.381,7.565,1.122,11.252l0.01,0.05L15.82,88.83 l0.05-0.01l-0.01-0.05c-0.551-2.705-0.832-5.49-0.832-8.266c0.01-11.061,4.318-21.471,12.133-29.286 c7.815-7.815,18.225-12.123,29.286-12.133c8.236,0.007,16.098,2.398,22.807,6.836l0.538,0.368c0.53,0.363,1.051,0.736,1.562,1.12 c0.07,0.052,0.137,0.108,0.206,0.161c0.427,0.325,0.849,0.655,1.26,0.995c0.378,0.313,0.748,0.635,1.116,0.963 c0.109,0.096,0.222,0.189,0.331,0.286c0.501,0.455,0.994,0.922,1.476,1.404l200.804,200.804 c7.815,7.815,12.123,18.225,12.133,29.286c-0.01,10.961-4.248,21.281-11.923,29.076l-0.21,0.22 c-7.825,7.815-18.225,12.123-29.296,12.133c-11.071-0.01-21.471-4.318-29.286-12.133L27.162,109.8 c-2.735-2.735-5.06-5.811-6.923-9.148l-0.02-0.05l-13.085,7.294l-0.05,0.02l0.03,0.05c2.535,4.549,5.701,8.737,9.418,12.464 l184.363,184.354v109.739h-89.561l-22.774,22.754l-0.02,18.736l14.979,0.05l0.05-12.554l13.967-13.957H397.17l13.967,13.957 v48.102H103.568v-20.569l-15.019-0.05l-0.01,35.598l337.616,0.05v-69.333l-2.194-2.224c-4.649-4.649-7.975-7.975-11.702-11.692 l-8.867-8.867h-89.594l-0.058-71.827l-15.029-0.04l0.06,71.868h-82.849v-94.711l1.413,1.413 c5.38,5.38,11.652,9.548,18.666,12.394c6.763,2.755,13.907,4.148,21.221,4.148h0.07c13.877,0,27.212-5.09,37.552-14.337h0.11 l2.224-2.204c0.524-0.524,1.026-1.063,1.526-1.603l-0.003,8.107l14.979-0.01l0.02-45.98c0.001-0.143,0.01-0.286,0.01-0.429 c0-0.138-0.009-0.275-0.01-0.413v-0.138h-0.003c-0.068-7.122-1.449-14.078-4.125-20.69c-2.845-7.013-7.013-13.295-12.394-18.676 l-97.822-97.822l114.404-13.802l0.004-8.672h30.917l-0.002,8.692l52.51,42.882l114.81,0.01v-24.818l-14.979-0.05L496.971,157.652 z M343.178,106.068h-7.175V84.251l-15.029-0.05v21.867h-7.169V71.98h29.372V106.068z"/><polygon points="457.586,118.266 416.597,118.266 399.104,103.969 399.104,74.082 416.597,59.784 457.586,59.784 457.586,79.031 511.95,79.031 512,5.36 397.22,5.36 385.378,15.019 385.338,15.049 394.816,26.651 394.846,26.691 402.561,20.389 496.971,20.389 496.971,64.002 472.615,64.002 472.615,44.756 411.267,44.756 384.085,66.928 384.075,111.073 411.227,133.285 472.615,133.295 472.615,122.795 496.971,122.795 496.971,132.834 511.95,132.884 512,107.766 457.636,107.766 "/><path d="M56.799,114.559c8.967,0,17.393-3.497,23.725-9.829c6.342-6.342,9.829-14.768,9.839-23.735 c-0.01-8.967-3.497-17.393-9.839-23.725c-6.332-6.342-14.758-9.839-23.725-9.839s-17.403,3.497-23.735,9.839 c-6.342,6.332-9.829,14.758-9.829,23.725s3.487,17.393,9.829,23.735C39.395,111.063,47.832,114.559,56.799,114.559z M75.334,80.995c-0.02,10.2-8.336,18.515-18.536,18.535c-2.344-0.004-4.58-0.464-6.647-1.265l23.917-23.911 C74.87,76.42,75.33,78.654,75.334,80.995z M56.799,62.46c2.341,0.005,4.575,0.464,6.641,1.265L39.525,87.639 c-0.801-2.066-1.259-4.301-1.261-6.644C38.273,70.796,46.589,62.48,56.799,62.46z"/><path d="M255.87,313.63c8.967,0,17.393-3.487,23.735-9.829c6.332-6.332,9.829-14.758,9.829-23.725s-3.497-17.403-9.829-23.735 c-6.342-6.342-14.768-9.829-23.735-9.829c-8.967,0-17.393,3.487-23.735,9.829c-6.332,6.332-9.829,14.768-9.829,23.735 s3.497,17.393,9.829,23.725C238.476,310.144,246.903,313.63,255.87,313.63z M263.384,263.16 c6.47,2.896,11.006,9.385,11.021,16.916c-0.015,7.524-4.551,14.012-11.021,16.911V263.16z M248.355,263.16v33.828 c-6.469-2.9-11.006-9.387-11.021-16.911C237.349,272.545,241.885,266.055,248.355,263.16z"/><rect x="118.329" y="161.442" transform="matrix(0.7071 0.7071 -0.7071 0.7071 170.9606 -74.8224)" width="114.939" height="15.029"/><rect x="97.534" y="90.707" transform="matrix(-0.7071 -0.7071 0.7071 -0.7071 109.8757 241.9552)" width="15.029" height="15.029"/><rect x="115.248" y="108.418" transform="matrix(-0.7071 -0.7071 0.7071 -0.7071 127.5922 284.7152)" width="15.029" height="15.029"/><rect x="171.842" y="211.704" transform="matrix(-0.7071 0.7071 -0.7071 -0.7071 472.9025 275.6781)" width="15.029" height="48.152"/><path d="M117.514,440.185v43.367h43.367v-43.367H117.514z M145.851,468.523h-13.31v-13.31h13.31V468.523z"/><path d="M168.197,440.185v43.367h43.367v-43.367H168.197z M196.535,468.523h-13.31v-13.31h13.31V468.523z"/><rect x="349.779" y="442.858" width="15.029" height="15.029"/><rect x="374.827" y="442.858" width="15.029" height="15.029"/><rect x="267.131" y="442.858" width="72.629" height="15.029"/><rect x="345.682" y="468.527" width="41.913" height="15.029"/><rect x="449.55" y="24.389" width="15.029" height="15.029"/><rect x="474.598" y="24.389" width="15.029" height="15.029"/><rect x="409.133" y="24.389" width="30.391" height="15.029"/><polygon points="377.683,111.724 368.175,123.366 401.288,150.408 401.328,150.438 410.836,138.796 377.713,111.754 "/></g></g></g></svg>