<svg xmlns="http://www.w3.org/2000/svg" enable-background="new 0 0 493.113 493.113" width="493.1130065917969" height="493.1130065917969" style=""><rect id="backgroundrect" width="100%" height="100%" x="0" y="0" fill="none" stroke="none"/><g class="currentLayer" style=""><title>Layer 1</title><g id="svg_1" class="" transform="rotate(20.42070960998535 303.7976074218749,252.07392883300776) "><path d="m321.53123209044935,277.1660066379785 h52.481527762237775 l-4.059227463461228,-58.05861340835428 l-82.99203931584256,11.483917197492996 l11.443679645847329,32.55324570832534 c2.915456249075306,8.292495368749393 12.364001063567711,14.02145050253593 23.126059371218673,14.02145050253593 z" fill="#d4cfd5" id="svg_2"/><path d="m445.2832991523476,204.8969944199151 l-5.989382828723502,12.31083141821186 c-6.662384441825942,13.693975487013764 -8.264990253519146,28.632568334480503 -4.616857371460394,43.035099973393926 l14.378364512439843,56.77206650782634 c0.7936777644173635,3.133569678513595 -1.3115243258291924,6.276162169448385 -5.011375558451482,7.480973004513741 l-57.0950698548159,18.593362631722268 c-4.846274670114033,1.5779306663653316 -10.285984260155836,-0.7791463902537206 -11.285209315274436,-4.889833578615472 l-30.17832060960052,-124.1602679596955 l32.10714986330988,-29.44355994504433 z" fill="#968d97" id="svg_3"/><path d="m377.5932610455476,184.59513571855607 l14.98903888255546,4.4954836004421 l-27.20517850797357,24.948076344602228 l30.17832060960052,124.1602679596955 c0.15979644212580194,0.6576037994035148 0.44358431444880236,1.2642552463108716 0.8102541588287523,1.8231388627530831 l-9.416718137222537,3.0666947158623903 c-4.846274670114033,1.5779306663653316 -10.285984260155836,-0.7791463902537206 -11.285209315274436,-4.889833578615472 l-30.17832060960052,-124.1602679596955 z" fill="#877f87" id="svg_4"/><path d="m320.5154306409194,270.57935357050667 c1.3910910190038643,0 2.773562312913806,-0.4638787091837544 3.756874029397471,-1.3704059806778628 l3.1786893923281814,-2.930291022200807 c7.887711516715907,-7.2707945504670946 9.829801885954378,-17.654990139918063 4.947722203911743,-26.455947526285343 l-2.4440235920153692,-4.405786229901992 c-1.1145967602218751,-2.0094334015671533 -4.051933849920216,-2.9148991657175922 -6.562926075357601,-2.0227022433630273 c-2.51032916966093,0.8921969223545658 -3.6415023242941955,3.2444971959271016 -2.5269055640723197,5.253399843822421 l2.4440235920153692,4.405786229901992 c3.322572495819049,5.9890244329856746 2.001102333343024,13.05654032713998 -3.366997232841576,18.004756809657298 l-3.1786893923281814,2.930291022200807 c-1.8008594888534306,1.6601974854997508 -1.5793988595172572,4.1738468753101134 0.49397655345942887,5.6159046016856955 c0.9408761467905072,0.654419277372505 2.101886811364276,0.9749944951608197 3.2582560855028544,0.9749944951608197 z" fill="#877f87" id="svg_5"/><path d="m419.6197253246332,199.0815264376195 l-2.6827236715393887,7.009132990252462 c-7.582042803769872,19.810911554911662 -8.489103105961139,40.94923804308256 -2.623048651658383,61.12955415359135 l17.779840645657117,61.167237664291626 l-10.470313766010495,3.409561587867774 l-18.182315501965665,-62.55144324043719 c-6.311627936080925,-21.71260196109632 -5.335609833138274,-44.45645830656796 2.8219653845950647,-65.77205652113173 l2.6827236715393887,-7.009132990252462 c0.3043426013931245,-0.7955997540806032 0.8646247324981129,-1.4696569173110008 1.5813880268466254,-1.9908570230529294 l9.298694209013435,2.7891105454927074 c0.08619725093922936,0.5933826051114849 0.026522231058224384,1.210649125455541 -0.2062103464776948,1.8188928333784034 z" fill="#877f87" id="svg_6"/><path d="m462.51147739199354,178.7855060266507 l-73.7636290191334,-14.065503057298235 c-14.47715982313173,-2.760449847213619 -29.308391430890758,-4.155270496795891 -44.19067833343687,-4.155270496795891 h-69.85756744003342 c-10.222993961392556,0 -20.429411528373716,0.6581345530753495 -30.520457390251607,1.9675038614921925 l-98.71773316604019,12.8123936380959 c-3.9252901966171967,0.5095235249615612 -6.210843458059674,3.8331030179920713 -4.648020992953809,6.760209518161866 l24.010575777010455,36.92134842752704 c8.09723714207588,12.452011894919963 23.527871171750768,20.769452686245593 40.98679282160337,22.09368309747382 l14.2371336320548,1.0795529685123053 c6.330856553598138,0.4150493713749385 12.680278668937033,0.6225740570624071 19.032353007381758,0.6225740570624071 h89.38124477776877 c4.026074674638449,0 7.898983464915651,-1.2377175627191233 10.818418048649688,-3.4573294183329186 l9.146191380428649,-6.954465362053462 c2.9194345837340387,-2.2196118556137963 6.7916803182347865,-3.4573294183329186 10.818418048649688,-3.4573294183329186 h11.01468255848055 c6.1392334342024695,0 11.715532514194129,-2.8628853058777652 14.276253922865683,-7.32917745436894 l5.541820179615966,-9.666085871458264 c2.5799500261887687,-4.500260383488612 8.21923940494371,-7.3695147334283995 14.40488674349807,-7.328646700697107 l56.54075522569901,0.3704660629408025 c3.4465639260162466,0.02335316156073825 6.2552681950822,-2.2063430138179223 6.2552681950822,-4.965200600016037 v-16.417803330870772 c0,-2.29922490638904 -1.9719278791789767,-4.298043234519494 -4.766707976939362,-4.830919921041793 z" fill="#e3e0e4" id="svg_7"/><path d="m145.46141204309805,175.34462997214462 l15.413394579487045,-2.0004105891459587 c-0.7764383142295176,1.3199843818535428 -0.9189953061674734,2.918083687748603 -0.1697422787726358,4.42170884005704 l24.010575777010455,39.56025568389048 c8.09723714207588,13.34155504891535 23.527871171750768,22.253970706367976 40.98679282160337,23.672675271182822 l14.2371336320548,1.15704300460021 c6.330856553598138,0.4447715769976967 12.680278668937033,0.6671573654965449 19.032353007381758,0.6671573654965449 h-19.89167329366822 c-6.352074338444721,0 -12.701496453783612,-0.20805543935930476 -19.032353007381758,-0.6225740570624071 l-14.2371336320548,-1.0795529685123053 c-17.4589216498526,-1.3242304112282222 -32.8895556795275,-9.641671202553857 -40.98679282160337,-22.09368309747382 l-24.010575777010455,-36.92134842752704 c-1.5628224651058664,-2.928168007513466 0.7227307963366134,-6.251747500543978 4.648020992953809,-6.761271025505538 z" fill="#d4cfd5" id="svg_8"/><g fill="#b5adb7" id="svg_9"><path d="m345.48611118223766,202.38706030580758 c2.746377026079127,0 4.972918323417055,-1.7822708300217909 4.972918323417055,-3.9806525387621887 v-13.811272048489291 c0,-2.1983817087403983 -2.2265412973379304,-3.9806525387621887 -4.972918323417055,-3.9806525387621887 s-4.972918323417055,1.7822708300217909 -4.972918323417055,3.9806525387621887 v13.811272048489291 c0,2.1983817087403983 2.2265412973379304,3.9806525387621887 4.972918323417055,3.9806525387621887 z" id="svg_10"/><path d="m323.5694655472741,202.38706030580758 c2.746377026079127,0 4.972918323417055,-1.7822708300217909 4.972918323417055,-3.9806525387621887 v-13.811272048489291 c0,-2.1983817087403983 -2.2265412973379304,-3.9806525387621887 -4.972918323417055,-3.9806525387621887 s-4.972918323417055,1.7822708300217909 -4.972918323417055,3.9806525387621887 v13.811272048489291 c0,2.1983817087403983 2.2265412973379304,3.9806525387621887 4.972918323417055,3.9806525387621887 z" id="svg_11"/><path d="m301.6534829680867,202.38706030580758 c2.746377026079127,0 4.972918323417055,-1.7822708300217909 4.972918323417055,-3.9806525387621887 v-13.811272048489291 c0,-2.1983817087403983 -2.2265412973379304,-3.9806525387621887 -4.972918323417055,-3.9806525387621887 s-4.972918323417055,1.7822708300217909 -4.972918323417055,3.9806525387621887 v13.811272048489291 c0,2.1983817087403983 2.2265412973379304,3.9806525387621887 4.972918323417055,3.9806525387621887 z" id="svg_12"/><path d="m279.73750038889943,202.38706030580758 c2.746377026079127,0 4.972918323417055,-1.7822708300217909 4.972918323417055,-3.9806525387621887 v-13.811272048489291 c0,-2.1983817087403983 -2.2265412973379304,-3.9806525387621887 -4.972918323417055,-3.9806525387621887 s-4.972918323417055,1.7822708300217909 -4.972918323417055,3.9806525387621887 v13.811272048489291 c0,2.1983817087403983 2.2265412973379304,3.9806525387621887 4.972918323417055,3.9806525387621887 z" id="svg_13"/><path d="m257.8215178097123,202.38706030580758 c2.746377026079127,0 4.972918323417055,-1.7822708300217909 4.972918323417055,-3.9806525387621887 v-13.811272048489291 c0,-2.1983817087403983 -2.2265412973379304,-3.9806525387621887 -4.972918323417055,-3.9806525387621887 s-4.972918323417055,1.7822708300217909 -4.972918323417055,3.9806525387621887 v13.811272048489291 c0,2.1983817087403983 2.2265412973379304,3.9806525387621887 4.972918323417055,3.9806525387621887 z" id="svg_14"/><path d="m208.19046683045724,167.2033993998682 c17.506661665757402,21.197240145744576 26.72844140470199,45.71169074045764 26.72844140470199,71.27172606868557 v4.313435091002707 c-3.609012591247872,-0.051483106167991136 -7.2160360151663765,-0.1709026823308569 -10.818418048649688,-0.3566664674730933 v-3.9567686235296162 c0,-25.162500828023546 -9.57784069090125,-49.23961039714461 -27.708437842303383,-69.74050172544172 z" id="svg_15"/></g></g><path fill="#eb1a1a" fill-opacity="1" stroke="#e84141" stroke-opacity="1" stroke-width="60" stroke-dasharray="none" stroke-linejoin="miter" stroke-linecap="butt" stroke-dashoffset="" fill-rule="nonzero" opacity="1" marker-start="" marker-mid="" marker-end="" id="svg_16" d="M124.82375161980752,170.68581907713596 " style="color: rgb(0, 0, 0);"/><path fill="#eb1a1a" fill-opacity="1" stroke="#e84141" stroke-opacity="1" stroke-width="60" stroke-dasharray="none" stroke-linejoin="miter" stroke-linecap="butt" stroke-dashoffset="" fill-rule="nonzero" opacity="1" marker-start="" marker-mid="" marker-end="" id="svg_17" d="M135.16857886582147,152.75478518404515 " style="color: rgb(0, 0, 0);"/><path fill="#eb1a1a" fill-opacity="1" stroke="#e84141" stroke-opacity="1" stroke-width="60" stroke-dasharray="none" stroke-linejoin="miter" stroke-linecap="butt" stroke-dashoffset="" fill-rule="nonzero" opacity="1" marker-start="" marker-mid="" marker-end="" id="svg_18" d="M146.20306126156964,154.13409548351368 " style="color: rgb(0, 0, 0);"/><path fill="#eb1a1a" fill-opacity="1" stroke="#d50b0b" stroke-opacity="1" stroke-width="40" stroke-dasharray="none" stroke-linejoin="miter" stroke-linecap="butt" stroke-dashoffset="" fill-rule="nonzero" opacity="1" marker-start="" marker-mid="" marker-end="" d="M-53.2743691089907,113.31091309294706 C-53.2743691089907,110.57820161040229 -13.89315363937743,108.36470530954108 34.7256308910093,108.36470530954108 C83.34441542139604,108.36470530954108 122.7256308910093,110.57820161040229 122.7256308910093,113.31091309294706 C122.7256308910093,116.04362457549178 83.34441542139604,118.25712087635301 34.7256308910093,118.25712087635301 C-13.89315363937743,118.25712087635301 -53.2743691089907,116.04362457549178 -53.2743691089907,113.31091309294706 z" id="svg_19" class="" transform="rotate(20.58709144592285 34.725631713867145,113.3109130859375) "/><path fill="#eb1a1a" fill-opacity="1" stroke="#d50b0b" stroke-opacity="1" stroke-width="40" stroke-dasharray="none" stroke-linejoin="miter" stroke-linecap="butt" stroke-dashoffset="" fill-rule="nonzero" opacity="1" marker-start="" marker-mid="" marker-end="" d="M-47.0933327835651,93.8248559584823 C-47.0933327835651,92.99612667671435 6.865986164161086,92.3248559584823 73.48242930950207,92.3248559584823 C140.09887245484305,92.3248559584823 194.05819140256924,92.99612667671435 194.05819140256924,93.8248559584823 C194.05819140256924,94.65358524025025 140.09887245484305,95.3248559584823 73.48242930950207,95.3248559584823 C6.865986164161086,95.3248559584823 -47.0933327835651,94.65358524025025 -47.0933327835651,93.8248559584823 z" id="svg_20" class="" transform="rotate(30.364757537841797 73.48242950439453,93.82485961914062) "/><path fill="#eb1a1a" fill-opacity="1" stroke="#d50b0b" stroke-opacity="1" stroke-width="40" stroke-dasharray="none" stroke-linejoin="miter" stroke-linecap="butt" stroke-dashoffset="" fill-rule="nonzero" opacity="1" marker-start="" marker-mid="" marker-end="" d="M-18.127219356824916,152.22413968182022 C-18.127219356824916,151.58267531801604 25.73205721384296,151.06308918333465 79.87931223935885,151.06308918333465 C134.02656726487476,151.06308918333465 177.88584383554263,151.58267531801604 177.88584383554263,152.22413968182022 C177.88584383554263,152.8656040456244 134.02656726487476,153.38519018030578 79.87931223935885,153.38519018030578 C25.73205721384296,153.38519018030578 -18.127219356824916,152.8656040456244 -18.127219356824916,152.22413968182022 z" id="svg_21" class="" transform="rotate(6.1367082595825195 79.87931823730477,152.22413635253906) "/></g></svg>